<?xml version="1.0" standalone="no"?>
<!DOCTYPE svg PUBLIC "-//W3C//DTD SVG 20010904//EN"
 "http://www.w3.org/TR/2001/REC-SVG-20010904/DTD/svg10.dtd">
<svg version="1.0" xmlns="http://www.w3.org/2000/svg"
 width="1169.000000pt" height="1069.000000pt" viewBox="0 0 1169.000000 1069.000000"
 preserveAspectRatio="xMidYMid meet">
<metadata>
Created by potrace 1.16, written by Peter Selinger 2001-2019
</metadata>
<g transform="translate(0.000000,1069.000000) scale(0.100000,-0.100000)"
fill="#000000" stroke="none">
<path d="M2410 10546 l0 -145 53 -3 52 -3 3 -344 c2 -330 3 -344 23 -370 21
-26 118 -128 296 -312 l93 -96 0 -337 0 -336 -62 -2 c-35 0 -67 -2 -73 -3 -5
-2 -22 -3 -37 -4 l-28 -1 -2 -337 -3 -338 -64 -3 -64 -3 7 -1292 c22 -4381 27
-4997 37 -5070 31 -232 151 -393 367 -494 40 -19 151 -53 250 -78 284 -71
1102 -263 1702 -400 305 -70 577 -136 605 -147 167 -65 290 -184 347 -334 l22
-57 17 51 c44 129 157 251 294 317 93 45 225 79 1395 361 628 151 1073 265
1151 295 238 92 383 270 419 515 8 59 0 2348 -23 6009 l-2 360 -67 3 -68 3 0
113 c0 62 -3 215 -7 339 l-6 227 -99 0 -98 0 0 336 0 337 64 71 c35 39 125
136 200 216 l136 145 0 353 0 352 50 0 50 0 0 125 0 125 -115 0 -115 0 0 -45
0 -46 -77 3 -78 3 -3 43 -3 42 -115 0 -114 0 0 -45 0 -45 -80 0 -80 0 0 45 0
45 -115 0 -116 0 3 -127 3 -128 50 -5 50 -5 3 -207 2 -208 -85 0 -84 0 -3
-132 -3 -133 -165 0 -165 0 -3 133 -3 132 -84 0 -85 0 0 210 0 210 50 0 50 0
0 130 0 130 -115 0 -115 0 0 -45 0 -45 -42 -1 c-24 -1 -59 -2 -78 -2 -35 -2
-35 -2 -38 46 l-3 47 -115 0 -114 0 0 -50 0 -50 -80 0 -80 0 0 50 0 50 -115 0
-116 0 3 -132 3 -133 50 -1 50 -1 0 -209 0 -209 -82 -3 -82 -3 -3 -132 -3
-132 -165 0 -165 0 -3 133 -3 132 -84 0 -85 0 0 210 0 210 50 0 50 0 0 135 0
135 -115 0 -115 0 0 -50 0 -50 -80 0 -80 0 0 50 0 50 -115 0 -115 0 0 -50 c0
-56 9 -51 -105 -54 l-50 -1 -3 53 -3 52 -115 0 -114 0 0 -134 0 -135 53 -3 52
-3 3 -207 2 -208 -85 0 -85 0 0 -134 0 -134 -157 -4 c-87 -2 -164 -2 -170 0
-10 3 -13 39 -13 133 l0 129 -85 0 -85 0 0 210 0 210 50 0 50 0 0 140 0 140
-115 0 -115 0 0 -55 0 -55 -80 0 -80 0 0 55 0 55 -115 0 -115 0 0 -55 0 -55
-80 0 -80 0 0 55 0 55 -115 0 -115 0 0 -139 0 -140 53 -3 52 -3 3 -207 2 -208
-85 0 -85 0 0 -135 0 -135 -167 2 -168 3 -3 132 -3 132 -82 -2 -82 -2 0 210 0
210 48 3 47 3 0 140 0 139 -115 0 -115 0 0 -60 0 -60 -80 0 -80 0 0 60 0 60
-115 0 -115 0 0 -60 0 -60 -80 0 -80 0 0 60 0 60 -115 0 -115 0 0 -144z m6750
-3148 c0 -288 5 -1173 10 -1968 5 -795 10 -1751 10 -2125 l1 -680 -320 -3
-321 -2 0 -189 0 -188 -122 -6 c-66 -4 -252 -7 -413 -7 l-292 0 -6 137 c-4 75
-7 162 -7 195 l0 58 -310 0 -310 0 0 -190 0 -190 -420 0 -420 0 0 175 0 175
-320 0 -320 0 -2 -177 -3 -178 -416 -3 -416 -2 -7 187 c-4 103 -8 188 -9 188
-1 1 -140 -1 -309 -3 l-308 -4 0 -194 0 -194 -415 0 -415 0 -2 187 -3 188
-320 0 -320 0 -6 1050 c-3 578 -10 1770 -14 2651 l-8 1601 2774 15 c1526 8
2996 15 3267 16 l492 2 0 -522z"/>
<path d="M5826 7604 c8 -18 14 -45 14 -60 0 -25 -2 -26 -40 -20 l-40 6 0 -47
c0 -69 9 -96 29 -87 51 21 54 19 49 -22 -4 -21 -9 -48 -14 -59 -7 -19 -7 -19
13 -2 24 21 81 22 111 1 25 -17 26 -15 13 18 -4 13 -11 36 -15 52 -6 26 -5 28
16 24 13 -3 31 -9 41 -13 15 -6 17 0 17 64 l0 71 -40 -6 c-46 -8 -50 2 -25 63
21 50 20 53 -21 42 -22 -7 -51 -7 -79 -1 l-43 9 14 -33z"/>
<path d="M5695 6989 c-104 -83 -246 -194 -313 -247 -107 -83 -121 -97 -103
-104 19 -7 21 -15 21 -108 l0 -101 63 3 62 3 0 105 0 105 193 3 192 2 0 -94
c0 -52 3 -101 6 -110 5 -13 22 -16 85 -16 l79 0 0 110 0 110 195 0 194 0 3
-107 3 -108 60 0 60 0 3 102 c3 96 4 102 25 105 17 2 -53 60 -300 251 -177
136 -326 247 -330 246 -4 0 -93 -68 -198 -150z"/>
<path d="M5518 6448 l-3 -113 -155 0 -155 0 -3 103 -3 102 -104 0 -105 0 0
-185 0 -185 303 0 c166 0 575 3 910 7 l607 6 0 184 0 184 -107 -3 -108 -3 0
-100 0 -100 -157 -3 -158 -3 0 73 c0 40 -3 90 -6 111 l-7 37 -93 0 -94 0 0
-110 0 -110 -170 0 c-93 0 -173 0 -177 0 -5 0 -9 49 -11 110 l-3 110 -99 0
-99 0 -3 -112z"/>
<path d="M7837 6392 c-27 -30 -22 -87 9 -111 15 -12 34 -21 44 -21 10 0 29 9
44 21 33 26 36 79 6 109 -26 26 -81 26 -103 2z"/>
<path d="M3860 6370 c-24 -24 -27 -82 -4 -104 46 -46 116 -19 122 47 6 67 -71
104 -118 57z"/>
<path d="M7857 6214 c-9 -9 -9 -97 0 -186 l6 -68 34 0 34 0 -3 128 -3 127 -30
3 c-17 2 -34 0 -38 -4z"/>
<path d="M3877 6194 c-9 -9 -9 -77 -1 -177 l7 -77 34 0 34 0 -3 128 -3 127
-30 3 c-17 2 -34 0 -38 -4z"/>
<path d="M5218 6073 l-68 -4 1 -642 c1 -353 4 -669 8 -703 l6 -61 347 341 348
341 -57 58 -58 57 75 75 c41 41 79 75 85 75 6 0 44 -34 85 -75 l74 -75 -57
-58 -58 -58 78 -74 c43 -41 186 -178 318 -305 132 -126 256 -245 275 -263 l35
-34 3 584 c2 320 0 638 -3 706 l-7 122 -682 -2 c-374 -1 -711 -3 -748 -5z
m403 -112 c29 -29 29 -31 29 -140 l0 -111 -95 0 -95 0 0 113 c0 76 4 118 13
129 37 47 106 51 148 9z m350 0 c29 -29 29 -31 29 -140 l0 -111 -95 0 -95 0
-1 93 c-2 133 -1 140 27 165 38 33 97 30 135 -7z m350 0 c29 -29 29 -31 29
-140 l0 -111 -95 0 -95 0 0 119 c0 117 1 120 26 140 41 32 98 28 135 -8z"/>
<path d="M6948 5893 l-188 -3 0 -315 0 -315 393 0 c217 0 590 3 829 7 l436 6
-56 77 c-32 42 -138 183 -236 313 l-180 237 -405 -2 c-224 -2 -490 -4 -593 -5z"/>
<path d="M3718 5688 c-79 -106 -185 -249 -235 -317 -51 -69 -91 -126 -89 -129
3 -2 376 -1 830 4 l826 7 0 313 0 314 -595 0 -595 0 -142 -192z"/>
<path d="M7142 5163 l-382 -3 2 -268 3 -267 123 0 c67 0 374 1 682 3 l560 2 0
270 0 270 -302 -2 c-167 -2 -475 -4 -686 -5z m15 -127 c28 -24 28 -25 28 -142
l0 -119 -95 0 -95 0 0 118 c0 118 0 119 28 143 19 16 40 24 67 24 27 0 48 -8
67 -24z m350 0 c27 -24 28 -27 31 -140 l4 -116 -101 0 -101 0 0 111 c0 109 0
111 29 140 39 38 97 40 138 5z m348 -1 c24 -23 25 -30 25 -140 l0 -115 -95 0
-95 0 0 112 c0 108 1 113 27 140 36 38 102 40 138 3z"/>
<path d="M3763 5143 l-83 -4 0 -143 c0 -78 3 -198 7 -264 l6 -122 679 0 678 0
0 270 0 270 -602 -2 c-332 -1 -640 -4 -685 -5z m652 -107 c18 -8 38 -23 44
-34 6 -12 11 -70 11 -131 l0 -111 -95 0 -95 0 0 111 c0 61 5 119 11 130 9 18
59 47 82 49 4 0 23 -6 42 -14z m383 -21 c20 -24 22 -36 22 -141 l0 -114 -95 0
-95 0 0 118 c0 110 2 120 23 139 30 28 46 33 87 28 21 -3 44 -14 58 -30z
m-703 0 c24 -23 25 -30 25 -140 l0 -115 -95 0 -95 0 0 115 c0 113 1 117 26
140 38 35 105 35 139 0z"/>
<path d="M5901 5083 c-1 -16 -143 -995 -172 -1181 -12 -82 -18 -147 -13 -152
30 -30 272 -36 367 -9 37 10 38 11 33 47 -3 20 -33 204 -66 407 -33 204 -78
485 -100 625 -39 243 -47 290 -49 263z"/>
<path d="M5760 4908 c-61 -143 -118 -274 -340 -786 -124 -285 -160 -376 -151
-385 8 -8 52 -12 124 -12 96 0 120 4 165 24 28 13 52 25 52 28 0 10 163 979
186 1107 14 76 23 140 21 143 -3 2 -28 -52 -57 -119z"/>
<path d="M5990 5029 c0 -4 31 -175 69 -380 39 -206 88 -475 111 -599 22 -124
43 -237 46 -252 11 -52 162 -89 284 -68 38 6 70 15 70 19 0 4 -27 67 -61 141
-34 74 -158 351 -276 615 -210 467 -242 537 -243 524z"/>
<path d="M6100 4988 c0 -4 109 -235 282 -598 35 -74 116 -245 179 -379 l114
-244 45 -20 c57 -26 198 -29 247 -7 l33 15 -171 235 c-94 129 -238 327 -320
440 -82 113 -207 286 -279 384 -71 98 -130 177 -130 174z"/>
<path d="M5613 4853 c-87 -125 -246 -350 -606 -857 -97 -137 -174 -252 -172
-257 3 -4 28 -12 55 -19 66 -16 165 -5 222 23 42 22 44 24 166 292 68 149 182
398 254 555 158 344 179 390 174 390 -2 0 -44 -57 -93 -127z"/>
<path d="M4970 4335 c-443 -443 -582 -588 -571 -594 29 -18 98 -21 171 -7 157
31 108 -21 563 597 381 519 432 589 425 589 -2 0 -266 -263 -588 -585z"/>
<path d="M6673 4360 c241 -322 432 -567 447 -575 73 -38 283 -56 312 -27 7 7
-1131 1132 -1169 1155 -7 4 178 -245 410 -553z"/>
<path d="M7172 4523 c-195 -2 -352 -7 -350 -11 2 -5 171 -171 377 -370 l373
-362 427 1 c234 1 469 4 521 8 l94 6 31 59 c42 82 47 188 15 280 -49 138 -175
260 -361 351 l-93 45 -340 -2 c-188 -2 -500 -4 -694 -5z"/>
<path d="M3715 4501 l-130 -6 -88 -47 c-233 -125 -348 -278 -351 -464 -1 -74
2 -87 34 -150 l35 -69 520 -2 520 -3 373 372 c204 204 372 373 372 375 0 5
-1141 0 -1285 -6z"/>
<path d="M7025 3652 c-51 -22 -75 -26 -160 -26 -70 -1 -118 5 -161 18 -60 18
-63 18 -115 0 -83 -29 -244 -26 -330 5 -64 23 -69 23 -106 8 -107 -43 -329
-47 -453 -8 l-65 20 -78 -24 c-97 -31 -212 -33 -314 -7 -57 16 -75 17 -94 7
-87 -44 -256 -45 -355 -2 l-59 26 -90 -23 -90 -23 0 -131 c0 -73 1 -271 3
-442 l2 -310 163 -2 162 -3 3 -189 2 -189 197 6 c108 4 236 7 285 7 l88 0 0
173 0 174 445 7 c245 4 450 4 455 1 6 -4 10 -77 10 -181 l0 -174 287 2 286 3
1 185 1 185 168 3 167 2 0 440 c0 340 -3 441 -12 447 -13 8 -100 29 -153 37
-19 3 -52 -5 -90 -22z m-1544 -203 c9 -4 30 -24 48 -44 l31 -36 0 -210 0 -210
-157 3 -158 3 -3 185 c-2 113 1 200 8 222 11 40 59 83 107 98 30 9 97 3 124
-11z m519 -4 c16 -8 39 -29 52 -47 22 -32 23 -42 26 -240 l4 -208 -161 0 -161
0 0 205 c0 160 3 212 14 234 37 72 145 98 226 56z m515 1 c69 -41 76 -68 73
-296 l-3 -195 -157 -3 -158 -3 0 206 c0 163 3 212 15 235 39 76 149 103 230
56z m476 -75 l39 -39 0 -185 0 -185 -32 -5 c-18 -2 -76 -4 -128 -3 l-95 1 -3
188 -2 189 39 39 c35 35 43 39 91 39 47 0 56 -4 91 -39z m-1991 14 c55 -28 61
-55 58 -257 l-3 -183 -125 0 -125 0 -3 175 c-3 191 2 215 50 255 35 29 102 34
148 10z"/>
<path d="M7435 3656 l-60 -22 4 -434 c2 -239 6 -438 8 -442 2 -5 105 -8 229
-8 l224 0 0 -190 0 -190 280 0 c260 0 280 1 281 18 0 9 1 94 2 187 l2 170 68
3 67 3 0 464 0 465 -522 -1 c-509 -1 -525 -2 -583 -23z m213 -210 c45 -23 53
-50 50 -166 l-3 -105 -92 -3 -93 -3 0 119 c0 110 2 120 23 139 39 35 72 41
115 19z m380 -23 c21 -26 22 -36 20 -138 l-3 -110 -95 0 -95 0 -3 99 c-1 56 2
112 8 126 27 64 123 78 168 23z m323 27 c36 -20 49 -63 49 -168 0 -116 5 -112
-120 -109 l-75 2 0 118 c0 118 0 119 28 143 30 26 83 32 118 14z"/>
<path d="M3367 3652 l-77 -3 0 -450 c1 -247 3 -456 6 -464 5 -11 23 -15 70
-15 l64 0 2 -187 3 -188 280 0 280 0 3 193 c2 174 4 192 20 192 113 0 428 14
432 19 3 3 3 201 0 440 l-5 434 -50 15 c-42 14 -122 16 -500 17 -247 0 -485
-1 -528 -3z m208 -227 c46 -22 55 -51 55 -171 l0 -105 -97 3 -98 3 -3 106 c-2
96 -1 108 19 133 36 46 72 55 124 31z m375 -20 c24 -24 25 -31 25 -138 l0
-112 -95 0 -95 0 -3 100 c-3 79 0 107 14 132 30 57 106 66 154 18z m324 24
c41 -19 53 -59 52 -172 l-1 -102 -95 0 -95 0 -3 109 c-2 86 1 113 13 133 27
40 81 53 129 32z"/>
</g>
</svg>
